<svg xmlns="http://www.w3.org/2000/svg" viewBox="0 0 128 128" fill="none">
  <rect width="128" height="128" fill="#232340"/>
  
  <!-- Left Building -->
  <rect x="28" y="64" width="24" height="40" fill="#6b6b8a"/>
  <!-- Middle Building -->
  <rect x="52" y="40" width="32" height="64" fill="#6b6b8a"/>
  <!-- Right Building -->
  <rect x="84" y="56" width="20" height="48" fill="#6b6b8a"/>
  
  <!-- Left Windows -->
  <rect x="34" y="72" width="4" height="4" fill="#232340"/>
  <rect x="42" y="72" width="4" height="4" fill="#232340"/>
  <rect x="34" y="82" width="4" height="4" fill="#232340"/>
  <rect x="42" y="82" width="4" height="4" fill="#232340"/>
  <rect x="34" y="92" width="4" height="4" fill="#232340"/>
  <rect x="42" y="92" width="4" height="4" fill="#232340"/>

  <!-- Middle Windows -->
  <rect x="60" y="48" width="4" height="4" fill="#232340"/>
  <rect x="72" y="48" width="4" height="4" fill="#232340"/>
  <rect x="60" y="60" width="4" height="4" fill="#232340"/>
  <rect x="72" y="60" width="4" height="4" fill="#232340"/>
  <rect x="60" y="72" width="4" height="4" fill="#232340"/>
  <rect x="72" y="72" width="4" height="4" fill="#232340"/>
  <rect x="60" y="84" width="4" height="4" fill="#232340"/>
  <rect x="72" y="84" width="4" height="4" fill="#232340"/>

  <!-- Right Windows -->
  <rect x="92" y="64" width="4" height="4" fill="#232340"/>
  <rect x="92" y="76" width="4" height="4" fill="#232340"/>
  <rect x="92" y="88" width="4" height="4" fill="#232340"/>
</svg>
